<svg xmlns="http://www.w3.org/2000/svg" viewBox="0 0 1224.000000 836.000000" preserveAspectRatio="xMidYMid meet">
  <g transform="translate(0.000000,836.000000) scale(0.100000,-0.100000)" fill="#ffffff">
    <path d="M662 8205 c-25 -54 -14 -74 50 -94 41 -13 93 -67 114 -117 40 -95 46
-181 94 -1354 22 -536 42 -1003 46 -1036 5 -61 5 -61 66 -68 34 -3 100 -6 148
-6 70 0 90 3 102 18 8 9 243 488 523 1064 279 576 513 1052 519 1057 8 7 10
-271 8 -1065 -3 -1074 -3 -1074 95 -1073 54 1 122 4 152 7 62 8 -6 -108 666
1132 671 1241 675 1247 768 1347 37 39 83 76 118 93 57 29 69 44 69 84 0 20
-7 24 -46 30 -60 8 -679 6 -719 -3 -27 -5 -30 -11 -33 -47 -3 -41 -3 -41 51
-63 63 -26 89 -50 112 -103 39 -96 7 -195 -199 -603 -302 -600 -711 -1383
-718 -1379 -5 3 -8 497 -8 1098 0 1093 0 1093 -61 1100 -34 3 -97 6 -140 6
-70 0 -80 -2 -94 -22 -9 -13 -122 -241 -251 -508 -632 -1304 -818 -1680 -825
-1673 -10 10 -33 1766 -25 1850 4 34 13 81 22 105 23 67 101 138 152 138 27 0
50 29 54 70 3 35 3 35 -398 38 -401 2 -401 2 -412 -23z"/>
<path d="M5313 7563 c-28 -2 -57 -10 -63 -18 -20 -24 -2 -54 39 -65 54 -14 83
-50 89 -108 7 -80 13 -50 -249 -1239 -86 -389 -107 -442 -196 -485 -35 -17
-49 -30 -55 -52 -4 -17 -6 -32 -4 -34 2 -2 119 0 259 4 256 7 256 7 262 31 7
30 -1 43 -26 43 -33 0 -78 28 -94 60 -30 57 -21 121 79 571 75 342 136 634
165 804 28 158 30 165 41 165 5 0 23 -46 40 -102 30 -101 265 -802 438 -1308
87 -255 87 -255 186 -263 54 -5 102 -5 106 0 8 8 25 83 205 903 166 753 176
801 196 857 29 84 55 120 112 150 40 22 53 34 55 54 3 27 3 27 -105 34 -146
10 -382 0 -399 -17 -24 -23 -5 -57 37 -68 40 -11 75 -47 85 -87 11 -41 -21
-222 -105 -603 -44 -201 -97 -454 -118 -562 -21 -109 -41 -198 -44 -198 -3 0
-116 325 -249 723 -134 397 -251 740 -260 763 -18 41 -18 41 -146 47 -128 7
-180 7 -281 0z"/>
<path d="M4297 7553 c-4 -3 -7 -19 -7 -34 0 -24 5 -30 39 -39 71 -19 85 -38
89 -121 4 -88 -3 -124 -162 -847 -147 -666 -152 -686 -182 -752 -31 -68 -58
-98 -107 -117 -35 -14 -60 -54 -43 -70 9 -10 434 -17 510 -8 51 5 69 11 77 26
14 26 -1 45 -42 53 -17 3 -44 19 -60 35 -27 27 -29 35 -29 100 0 76 19 173
174 881 162 737 171 763 264 813 45 24 52 32 52 58 0 29 0 29 -283 29 -156 0
-287 -3 -290 -7z"/>
<path d="M7264 7536 c-8 -32 10 -56 41 -56 13 0 38 -12 56 -27 32 -27 32 -27
26 -135 -4 -81 -23 -187 -77 -430 -39 -178 -105 -475 -146 -661 -41 -185 -85
-372 -99 -415 -28 -89 -67 -141 -124 -167 -39 -17 -64 -56 -47 -72 3 -4 127
-8 274 -11 327 -5 586 9 697 38 384 102 681 441 786 900 26 112 36 375 20 489
-42 285 -196 458 -481 542 -71 21 -99 22 -497 26 -422 5 -422 5 -429 -21z
m741 -136 c107 -27 161 -56 225 -120 112 -112 152 -233 152 -465 1 -176 -17
-291 -68 -445 -85 -255 -234 -462 -405 -563 -115 -68 -291 -107 -481 -107 -64
0 -90 4 -94 13 -3 8 25 148 61 313 74 335 183 834 251 1144 24 113 49 215 54
228 9 21 15 22 118 22 76 0 132 -6 187 -20z"/>
<path d="M5 5219 c4 -101 9 -185 10 -187 3 -3 976 -9 5760 -32 1161 -5 2248
-13 2416 -16 l306 -7 6 -1401 c4 -771 7 -1888 7 -2483 0 -1083 0 -1083 63
-1083 35 0 119 -3 185 -7 122 -6 122 -6 122 2669 0 2676 0 2676 -152 2682
-143 6 -2361 18 -5403 31 -726 3 -1772 8 -2323 11 -1004 7 -1004 7 -997 -177z"/>
<path d="M2570 4381 c-75 -15 -117 -60 -147 -156 -15 -50 -18 -95 -18 -280 0
-237 9 -294 57 -365 43 -63 70 -75 163 -75 93 0 120 13 163 75 42 62 47 101
47 365 0 235 -2 253 -23 306 -30 76 -74 116 -141 129 -30 5 -56 9 -60 9 -3 -1
-22 -4 -41 -8z m100 -128 c39 -37 50 -106 50 -323 -1 -223 -16 -290 -72 -309
-39 -14 -73 1 -93 40 -27 52 -41 256 -28 414 12 143 24 178 66 195 35 14 45
12 77 -17z"/>
<path d="M4225 4380 c-43 -13 -102 -66 -125 -111 -64 -124 -77 -466 -23 -601
47 -119 98 -159 213 -166 72 -4 78 -3 94 19 9 13 16 40 16 61 0 38 0 38 -66
38 -63 0 -68 2 -100 36 -53 55 -69 124 -69 289 1 200 28 280 109 322 20 10 42
13 79 8 50 -7 50 -7 43 36 -7 47 -27 69 -62 69 -12 0 -34 2 -50 4 -16 3 -42 1
-59 -4z"/>
<path d="M5290 4381 c-75 -15 -117 -60 -147 -156 -15 -50 -18 -95 -18 -280 0
-237 9 -294 57 -365 43 -63 70 -75 163 -75 93 0 120 13 163 75 42 62 47 101
47 365 0 235 -2 253 -23 306 -30 76 -74 116 -141 129 -30 5 -56 9 -60 9 -3 -1
-22 -4 -41 -8z m100 -128 c39 -37 50 -106 50 -323 -1 -223 -16 -290 -72 -309
-39 -14 -73 1 -93 40 -27 52 -41 256 -28 414 12 143 24 178 66 195 35 14 45
12 77 -17z"/>
<path d="M6351 4380 c-133 -32 -191 -222 -106 -352 13 -20 50 -65 81 -100 105
-116 114 -133 114 -205 0 -55 -3 -67 -26 -90 -22 -22 -31 -25 -72 -20 -26 4
-59 9 -74 13 -21 5 -27 2 -33 -15 -3 -12 -3 -35 0 -52 9 -38 53 -59 127 -59
108 0 179 64 200 180 19 110 -8 178 -120 301 -112 124 -133 179 -97 249 22 43
49 53 116 46 55 -7 59 -6 64 16 19 74 -61 115 -174 88z"/>
<path d="M1484 4374 c-19 -5 -22 -14 -27 -117 -9 -144 -9 -403 0 -595 7 -167
6 -167 79 -155 34 6 34 6 34 73 0 37 3 121 7 188 6 121 6 121 52 128 76 10
127 38 158 85 27 41 28 48 28 159 0 109 -2 119 -27 157 -37 56 -83 75 -193 79
-49 1 -99 0 -111 -2z m169 -125 c46 -36 58 -132 25 -203 -11 -26 -69 -53 -88
-41 -6 4 -10 58 -10 136 0 129 0 129 24 129 13 0 35 -9 49 -21z"/>
<path d="M1922 3943 c3 -438 3 -438 61 -441 57 -3 57 -3 57 193 0 107 4 195 8
195 5 0 39 -81 77 -180 37 -99 73 -184 79 -189 7 -6 32 -12 57 -13 43 -3 44
-2 43 27 0 17 -32 110 -69 208 -69 177 -69 177 -31 209 57 46 76 96 76 198 0
70 -4 94 -22 130 -41 79 -91 99 -246 100 -92 0 -92 0 -90 -437z m195 312 c44
-31 54 -177 15 -225 -9 -11 -32 -23 -49 -26 -33 -6 -33 -6 -33 130 0 135 0
136 23 136 12 0 32 -7 44 -15z"/>
<path d="M2967 4324 c-4 -33 -3 -228 0 -436 6 -376 6 -376 42 -381 45 -6 190
9 228 24 62 23 113 95 133 185 15 64 14 375 -1 444 -14 69 -33 106 -73 148
-51 55 -79 65 -207 70 -116 5 -116 5 -122 -54z m210 -74 c65 -39 87 -140 81
-360 -3 -120 -8 -153 -25 -192 -24 -52 -67 -81 -111 -76 -27 3 -27 3 -30 326
-2 322 -2 322 25 322 16 0 42 -9 60 -20z"/>
<path d="M3513 4364 c-3 -8 -4 -176 -1 -373 4 -345 5 -359 27 -403 30 -63 81
-88 177 -88 53 0 78 6 108 23 65 36 78 70 87 221 10 160 11 547 2 599 -6 38
-6 38 -57 32 -28 -4 -52 -8 -53 -9 -2 -1 -6 -166 -11 -365 -7 -341 -9 -364
-27 -377 -27 -20 -78 -17 -109 7 -26 20 -26 20 -26 379 0 358 0 358 -22 364
-43 11 -88 7 -95 -10z"/>
<path d="M4424 4366 c-3 -8 -4 -29 -2 -48 3 -33 3 -33 71 -36 67 -3 67 -3 67
-386 0 -421 -4 -396 60 -396 64 0 60 -25 60 396 0 384 0 384 49 384 71 0 81 6
81 50 0 37 0 37 -82 43 -152 12 -298 9 -304 -7z"/>
<path d="M4892 4372 c-17 -11 -27 -384 -17 -654 8 -229 6 -223 79 -211 33 5
33 5 39 393 4 213 4 409 1 434 -7 46 -7 46 -48 46 -22 0 -47 -4 -54 -8z"/>
<path d="M5697 4373 c-9 -8 -9 -412 0 -665 6 -196 6 -196 40 -201 65 -11 63
-21 63 264 0 142 3 259 8 259 4 0 26 -62 50 -138 76 -242 124 -373 142 -382
10 -5 33 -7 52 -4 35 6 35 6 41 390 6 365 4 469 -13 479 -5 3 -29 2 -54 -1
-46 -7 -46 -7 -46 -243 0 -130 -4 -242 -9 -250 -6 -10 -14 4 -26 45 -47 162
-137 425 -151 439 -15 15 -85 21 -97 8z"/>
<path d="M6907 4324 c-4 -33 -3 -228 0 -435 6 -376 6 -376 137 -382 163 -8
180 -5 172 36 -3 16 -6 35 -6 42 0 8 -28 15 -88 19 -89 7 -89 7 -95 239 -4
128 -7 298 -7 380 0 133 -2 147 -17 147 -10 0 -34 3 -54 6 -36 6 -36 6 -42
-52z"/>
<path d="M7293 4364 c-6 -17 3 -844 10 -850 2 -2 67 -5 145 -6 149 -3 161 0
162 43 0 38 -25 52 -106 57 -43 2 -82 10 -86 16 -4 6 -8 176 -8 377 0 367 0
367 -22 373 -44 11 -88 7 -95 -10z"/>
<path d="M7799 4348 c-53 -41 -94 -117 -110 -208 -7 -40 -10 -134 -7 -245 4
-193 12 -228 67 -306 43 -61 82 -81 166 -87 90 -6 105 3 105 63 0 40 -2 43
-31 49 -17 3 -44 6 -59 6 -68 0 -117 79 -131 213 -19 181 7 341 66 405 32 35
36 37 94 36 56 -1 62 1 67 22 3 12 0 35 -8 51 -13 27 -16 28 -94 31 -79 3 -83
2 -125 -30z"/>
  </g>
  <g transform="translate(0.000000,836.000000) scale(0.100000,-0.100000)" fill="#F500F5">
    <path d="M9220 8150 c0 -210 0 -210 688 -212 l687 -3 3 -302 c2 -301 2 -301
125 -308 234 -13 211 -45 217 305 5 305 5 305 478 307 472 2 472 2 472 -331 0
-334 0 -334 123 -341 67 -4 145 -5 172 -3 50 3 50 3 50 548 l0 545 -1507 3
c-1508 2 -1508 2 -1508 -208z"/>
<path d="M9220 6994 c0 -104 4 -194 8 -200 4 -7 43 -19 87 -27 351 -68 462
-91 473 -100 9 -7 12 -78 12 -293 0 -284 0 -284 -24 -294 -13 -4 -139 -31
-280 -59 -141 -28 -261 -53 -266 -56 -6 -4 -10 -87 -10 -206 0 -200 0 -200 48
-193 49 7 112 20 1112 235 333 72 625 134 650 139 25 5 297 63 604 129 308 67
563 121 567 121 4 0 15 7 23 16 13 12 16 40 16 138 0 153 -6 185 -34 191 -30
7 -541 118 -811 176 -126 27 -268 58 -315 69 -47 11 -191 42 -320 70 -129 28
-316 69 -415 90 -99 22 -306 67 -460 100 -154 34 -350 76 -435 95 -85 19 -172
37 -192 41 -38 6 -38 6 -38 -182z m1010 -404 c20 -11 129 -30 166 -30 17 0 34
-4 40 -9 5 -5 27 -12 49 -15 22 -3 69 -10 105 -16 36 -5 91 -13 122 -16 32 -4
55 -10 52 -15 -3 -5 20 -9 50 -9 30 0 58 -4 61 -10 3 -5 35 -10 71 -10 36 0
63 -4 60 -9 -3 -4 23 -11 57 -15 152 -15 173 -18 192 -26 19 -8 51 -12 218
-26 37 -4 67 -10 67 -14 0 -4 -33 -10 -72 -14 -71 -6 -117 -12 -298 -36 -232
-31 -391 -56 -630 -100 -25 -5 -72 -13 -105 -19 -33 -6 -82 -16 -110 -21 -27
-6 -71 -13 -98 -17 -26 -3 -50 -10 -53 -14 -3 -5 -14 -9 -25 -9 -18 0 -19 9
-19 236 0 236 0 236 42 229 23 -4 49 -11 58 -15z"/>
<path d="M9220 4790 c0 -540 0 -540 78 -540 44 0 120 3 170 6 92 7 92 7 92
335 l0 329 1338 2 c1337 3 1337 3 1340 192 2 130 -1 193 -9 202 -10 12 -248
14 -1510 14 l-1499 0 0 -540z"/>
<path d="M9220 3460 c0 -540 0 -540 170 -540 170 0 170 0 170 335 l0 335 1333
0 c1334 0 1334 0 1340 113 4 61 7 154 7 205 0 92 0 92 -1510 92 l-1510 0 0
-540z"/>
  </g>
</svg>
